<svg width="60" height="60" viewBox="0 0 60 60" fill="none" xmlns="http://www.w3.org/2000/svg">
<rect width="60" height="60" rx="30" fill="#B1D5FF" fill-opacity="0.2"/>
<path d="M26.6667 13.332V17.0987L30 19.3154V16.6654H46.6667V41.6654H38.3333V44.9987H50V13.332H26.6667ZM22.5 18.332L10 26.6654V44.9987H35V26.6654L22.5 18.332ZM33.3333 19.9987V21.5487L36.0167 23.332H36.6667V19.9987H33.3333ZM40 19.9987V23.332H43.3333V19.9987H40ZM22.5 22.4987L31.6667 28.332V41.6654H26.6667V31.6654H18.3333V41.6654H13.3333V28.332L22.5 22.4987ZM40 26.6654V29.9987H43.3333V26.6654H40ZM40 33.332V36.6654H43.3333V33.332H40Z" fill="#0150AC"/>
</svg>
