<svg width="108" height="88" viewBox="0 0 108 88" fill="none" xmlns="http://www.w3.org/2000/svg">
<g filter="url(#filter0_d_10192_15004)">
<rect x="4" width="100" height="80" rx="10" fill="white"/>
<path d="M47.625 16C46.9288 16 46.2611 16.2766 45.7688 16.7688C45.2766 17.2611 45 17.9288 45 18.625V30.25C45 31.2446 45.3951 32.1984 46.0983 32.9016C46.8016 33.6049 47.7554 34 48.75 34H59.25C60.2446 34 61.1984 33.6049 61.9016 32.9016C62.6049 32.1984 63 31.2446 63 30.25V28H58.5V18.625C58.5 17.9288 58.2234 17.2611 57.7312 16.7688C57.2389 16.2766 56.5712 16 55.875 16H47.625ZM58.5 29.5H61.5V30.25C61.5 30.8467 61.2629 31.419 60.841 31.841C60.419 32.2629 59.8467 32.5 59.25 32.5H58.5V29.5ZM46.5 18.625C46.5 18.3266 46.6185 18.0405 46.8295 17.8295C47.0405 17.6185 47.3266 17.5 47.625 17.5H55.875C56.1734 17.5 56.4595 17.6185 56.6705 17.8295C56.8815 18.0405 57 18.3266 57 18.625V32.5H48.75C48.1533 32.5 47.581 32.2629 47.159 31.841C46.7371 31.419 46.5 30.8467 46.5 30.25V18.625ZM48.75 21.25C48.75 21.0511 48.829 20.8603 48.9697 20.7197C49.1103 20.579 49.3011 20.5 49.5 20.5H54C54.1989 20.5 54.3897 20.579 54.5303 20.7197C54.671 20.8603 54.75 21.0511 54.75 21.25C54.75 21.4489 54.671 21.6397 54.5303 21.7803C54.3897 21.921 54.1989 22 54 22H49.5C49.3011 22 49.1103 21.921 48.9697 21.7803C48.829 21.6397 48.75 21.4489 48.75 21.25ZM48.75 25C48.75 24.8011 48.829 24.6103 48.9697 24.4697C49.1103 24.329 49.3011 24.25 49.5 24.25H54C54.1989 24.25 54.3897 24.329 54.5303 24.4697C54.671 24.6103 54.75 24.8011 54.75 25C54.75 25.1989 54.671 25.3897 54.5303 25.5303C54.3897 25.671 54.1989 25.75 54 25.75H49.5C49.3011 25.75 49.1103 25.671 48.9697 25.5303C48.829 25.3897 48.75 25.1989 48.75 25ZM49.5 28C49.3011 28 49.1103 28.079 48.9697 28.2197C48.829 28.3603 48.75 28.5511 48.75 28.75C48.75 28.9489 48.829 29.1397 48.9697 29.2803C49.1103 29.421 49.3011 29.5 49.5 29.5H51.75C51.9489 29.5 52.1397 29.421 52.2803 29.2803C52.421 29.1397 52.5 28.9489 52.5 28.75C52.5 28.5511 52.421 28.3603 52.2803 28.2197C52.1397 28.079 51.9489 28 51.75 28H49.5Z" fill="#0150AC"/>
<path d="M35.3339 54.596C35.7259 54.596 36.0459 54.536 36.2939 54.416C36.5499 54.288 36.7379 54.112 36.8579 53.888C36.9779 53.664 37.0379 53.404 37.0379 53.108C37.0379 52.636 36.9019 52.268 36.6299 52.004C36.3579 51.74 35.9259 51.608 35.3339 51.608H33.4019V54.596H35.3339ZM38.2379 53.108C38.2379 53.412 38.1859 53.716 38.0819 54.02C37.9779 54.316 37.8099 54.584 37.5779 54.824C37.3459 55.064 37.0419 55.256 36.6659 55.4C36.2979 55.536 35.8539 55.604 35.3339 55.604H33.4019V59H32.2019V50.6H35.3339C35.9899 50.6 36.5299 50.716 36.9539 50.948C37.3859 51.172 37.7059 51.476 37.9139 51.86C38.1299 52.236 38.2379 52.652 38.2379 53.108ZM42.7271 59L42.6311 58.124C42.4471 58.428 42.2071 58.664 41.9111 58.832C41.6231 58.992 41.2471 59.072 40.7831 59.072C40.3511 59.072 39.9831 59.004 39.6791 58.868C39.3751 58.724 39.1391 58.528 38.9711 58.28C38.8111 58.024 38.7311 57.728 38.7311 57.392C38.7311 56.888 38.9191 56.472 39.2951 56.144C39.6711 55.808 40.2151 55.6 40.9271 55.52L42.6311 55.328V54.86C42.6311 54.604 42.5271 54.388 42.3191 54.212C42.1111 54.028 41.8111 53.936 41.4191 53.936C41.0511 53.936 40.7391 54.024 40.4831 54.2C40.2271 54.368 40.0551 54.62 39.9671 54.956L38.9591 54.596C39.1111 54.068 39.4071 53.656 39.8471 53.36C40.2951 53.064 40.8351 52.916 41.4671 52.916C42.2191 52.916 42.7911 53.104 43.1831 53.48C43.5751 53.856 43.7711 54.352 43.7711 54.968V59H42.7271ZM42.6311 56.252L40.9871 56.456C40.6351 56.504 40.3711 56.604 40.1951 56.756C40.0191 56.9 39.9311 57.092 39.9311 57.332C39.9311 57.556 40.0151 57.744 40.1831 57.896C40.3591 58.04 40.6031 58.112 40.9151 58.112C41.2991 58.112 41.6191 58.04 41.8751 57.896C42.1311 57.752 42.3191 57.552 42.4391 57.296C42.5671 57.032 42.6311 56.728 42.6311 56.384V56.252ZM49.3232 53H50.4992L47.0192 61.4H45.9032L46.9592 58.88L44.5832 53H45.8312L47.5712 57.548L49.3232 53ZM60.046 52.928C60.046 52.52 59.91 52.2 59.638 51.968C59.374 51.728 58.99 51.608 58.486 51.608H56.23V54.236H58.498C58.986 54.236 59.366 54.12 59.638 53.888C59.91 53.656 60.046 53.336 60.046 52.928ZM55.03 59V50.6H58.594C59.186 50.6 59.678 50.7 60.07 50.9C60.462 51.1 60.754 51.364 60.946 51.692C61.146 52.02 61.246 52.384 61.246 52.784C61.246 53.16 61.174 53.476 61.03 53.732C60.894 53.988 60.71 54.192 60.478 54.344C60.254 54.496 59.998 54.604 59.71 54.668V54.752C60.054 54.8 60.354 54.904 60.61 55.064C60.874 55.216 61.078 55.432 61.222 55.712C61.374 55.992 61.45 56.34 61.45 56.756C61.45 57.172 61.342 57.552 61.126 57.896C60.91 58.24 60.598 58.512 60.19 58.712C59.79 58.904 59.302 59 58.726 59H55.03ZM56.23 57.992H58.618C59.13 57.992 59.53 57.876 59.818 57.644C60.114 57.404 60.262 57.064 60.262 56.624C60.262 56.176 60.106 55.836 59.794 55.604C59.49 55.364 59.086 55.244 58.582 55.244H56.23V57.992ZM63.1182 53H64.2582V59H63.1182V53ZM63.6942 51.944C63.4782 51.944 63.2982 51.872 63.1542 51.728C63.0102 51.584 62.9382 51.408 62.9382 51.2C62.9382 50.984 63.0102 50.804 63.1542 50.66C63.2982 50.508 63.4782 50.432 63.6942 50.432C63.9022 50.432 64.0782 50.508 64.2222 50.66C64.3742 50.804 64.4502 50.984 64.4502 51.2C64.4502 51.408 64.3742 51.584 64.2222 51.728C64.0782 51.872 63.9022 51.944 63.6942 51.944ZM66.1492 50.36H67.2772V59H66.1492V50.36ZM68.9968 50.36H70.1248V59H68.9968V50.36ZM72.5165 57.104C72.5725 57.344 72.6685 57.532 72.8045 57.668C72.9405 57.804 73.1005 57.904 73.2845 57.968C73.4765 58.024 73.6765 58.052 73.8845 58.052C74.2445 58.052 74.5245 57.98 74.7245 57.836C74.9245 57.692 75.0245 57.512 75.0245 57.296C75.0245 57.112 74.9605 56.968 74.8325 56.864C74.7125 56.752 74.5485 56.664 74.3405 56.6C74.1405 56.536 73.9245 56.476 73.6925 56.42C73.4845 56.364 73.2565 56.3 73.0085 56.228C72.7685 56.156 72.5405 56.06 72.3245 55.94C72.1165 55.812 71.9445 55.652 71.8085 55.46C71.6725 55.26 71.6045 55.008 71.6045 54.704C71.6045 54.344 71.7005 54.032 71.8925 53.768C72.0925 53.496 72.3645 53.288 72.7085 53.144C73.0605 52.992 73.4565 52.916 73.8965 52.916C74.4085 52.916 74.8565 53.028 75.2405 53.252C75.6325 53.468 75.9165 53.796 76.0925 54.236L75.0725 54.572C75.0165 54.42 74.9245 54.296 74.7965 54.2C74.6685 54.104 74.5205 54.04 74.3525 54.008C74.1925 53.968 74.0325 53.948 73.8725 53.948C73.5685 53.948 73.3165 54.008 73.1165 54.128C72.9165 54.248 72.8165 54.424 72.8165 54.656C72.8165 54.784 72.8485 54.892 72.9125 54.98C72.9765 55.06 73.0645 55.128 73.1765 55.184C73.2965 55.232 73.4365 55.276 73.5965 55.316C73.7565 55.356 73.9285 55.4 74.1125 55.448C74.3525 55.52 74.5965 55.6 74.8445 55.688C75.0925 55.768 75.3205 55.872 75.5285 56C75.7365 56.128 75.9045 56.296 76.0325 56.504C76.1605 56.712 76.2285 56.968 76.2365 57.272C76.2365 57.624 76.1365 57.936 75.9365 58.208C75.7445 58.48 75.4685 58.696 75.1085 58.856C74.7565 59.008 74.3365 59.084 73.8485 59.084C73.2565 59.084 72.7525 58.952 72.3365 58.688C71.9205 58.424 71.6405 58.016 71.4965 57.464L72.5165 57.104Z" fill="black"/>
</g>
<defs>
<filter id="filter0_d_10192_15004" x="0" y="0" width="108" height="88" filterUnits="userSpaceOnUse" color-interpolation-filters="sRGB">
<feFlood flood-opacity="0" result="BackgroundImageFix"/>
<feColorMatrix in="SourceAlpha" type="matrix" values="0 0 0 0 0 0 0 0 0 0 0 0 0 0 0 0 0 0 127 0" result="hardAlpha"/>
<feOffset dy="4"/>
<feGaussianBlur stdDeviation="2"/>
<feComposite in2="hardAlpha" operator="out"/>
<feColorMatrix type="matrix" values="0 0 0 0 0 0 0 0 0 0 0 0 0 0 0 0 0 0 0.05 0"/>
<feBlend mode="normal" in2="BackgroundImageFix" result="effect1_dropShadow_10192_15004"/>
<feBlend mode="normal" in="SourceGraphic" in2="effect1_dropShadow_10192_15004" result="shape"/>
</filter>
</defs>
</svg>
